<svg xmlns="http://www.w3.org/2000/svg" xmlns:xlink="http://www.w3.org/1999/xlink" width="327" height="255.282" viewBox="0 0 327 255.282">
  <defs>
    <clipPath id="clip-path">
      <rect id="Rectangle_1" data-name="Rectangle 1" width="222" height="49" transform="translate(321 573)" fill="#fff" stroke="#707070" stroke-width="1"/>
    </clipPath>
  </defs>
  <g id="flyingfish-dark-text" transform="translate(-690.739 -397.017)">
    <path id="Path_1" data-name="Path 1" d="M847.456,397.017,858.889,425.8l21.684,21.093,26.612,31.343,25.232,35.68,3.548,6.111h2.76L925.716,494l-14.982-25.627-15.573-22.67-14.588-18.924L867.366,412.59,854.75,401.945Z" fill="#1c2b2d"/>
    <path id="Path_2" data-name="Path 2" d="M863.423,437.626l3.943,14.193,29.964,29.766,28.584,35.68,6.505,1.774-13.8-19.91-16.164-20.5L887.67,461.084l-13.8-14Z" fill="#1c2b2d"/>
    <path id="Path_3" data-name="Path 3" d="M870.126,463.055l2.76,13.4,10.054,7.491L894.964,494.4l21.487,21.093,6.505,1.38-6.505-8.279-8.477-9.462-9.659-9.856-11.631-11.631-9.462-9.068Z" fill="#1c2b2d"/>
    <path id="Path_4" data-name="Path 4" d="M873.674,484.739v7.294L913.1,515.491l-9.659-9.462L887.079,493.61Z" fill="#1c2b2d"/>
    <path id="Path_5" data-name="Path 5" d="M740.218,447.285l10.251,7.491,12.813,11.631,30.949,8.871,30.555,10.645L858.3,500.115l40.017,20.7,37.652,24.641-30.752-17.939L874.66,511.943l-29.175-13.208-32.723-11.828-29.766-9.462-8.082-2.168,10.842,10.645,27.007,7.491,32.723,11.828,40.609,17.939,41.791,22.276-57.364-26.81L842.331,507.8l-26.612-9.068-24.05-6.505,8.279,10.054,27.2,6.9,31.146,9.462L898.315,535.4l-37.257-12.222-24.444-6.9-23.853-5.52-6.505-1.577L816.7,520.814l16.362,2.366,22.67,4.337,36.075,9.659-30.752-6.111L840.951,528.7l-16.165-1.183,8.279,6.308,25.232,6.111,25.232,8.082,23.458,8.871,20.9,10.054,9.068,1.577v-3.745l.986-3.351,3.351-2.957,5.52-2.76h2.168l-3.745,2.76-2.563,2.957-1.38,3.351v3.745l2.366,2.366,9.462,4.14,13.208,4.337,20.5,2.76h11.236l4.529-.88h8.335l5.272-1.879,1.183-2.76-6.7-8.082-8.279-8.871-9.068-7.294-13.6-8.871-10.645-6.308-17.15-7.1-18.136-5.52-13.4-2.366-6.505-1.38,7.885,6.7,8.871,7.885,5.322,6.111L923.35,531.065l-11.828-8.871-15.77-11.433L874.66,497.75l-27.992-15.376-24.05-10.842-22.67-9.265L771.167,453l-14.588-3.548Z" fill="#1c2b2d"/>
    <path id="Path_6" data-name="Path 6" d="M919.6,565.759l-10.251-.986L892.4,561.225l-31.343-4.731-25.43-2.563-31.935-1.577H788.514l6.7-4.534,7.294-5.52,6.505-5.717,15.573,2.76,39.229,8.477,28.584,8.674Z" fill="#1c2b2d"/>
    <path id="Path_7" data-name="Path 7" d="M888.064,563.788l-25.035-2.168-28.978-1.774h-37.06l-40.411,1.774-31.146,2.168-26.218,3.943-8.477,2.957,5.323,2.76h7.885l7.491.986,12.025,2.366,12.813,3.351,5.717,2.563L755,578.967c3.253-.936,16.165-3.154,16.165-3.154l24.444-5.125,27.8-2.957,34.5-2.168Z" fill="#1c2b2d"/>
    <path id="Path_8" data-name="Path 8" d="M814.93,575.418l-3.351,10.054v2.76l8.674-4.534,7.885-5.322,2.957-5.717Z" fill="#1c2b2d"/>
    <path id="Path_9" data-name="Path 9" d="M760.522,586.458l6.308,5.125,3.351,14.982,1.38,22.078v6.111l-1.38,9.462,1.38,8.082,5.52-5.914,7.1-11.631,5.323-15.77,1.774-15.179,1.38-12.222,1.577-6.9,2.76-5.125,1.971-1.971Z" fill="#1c2b2d"/>
    <g id="Mask_Group_1" data-name="Mask Group 1" transform="translate(474.739 30.017)" clip-path="url(#clip-path)">
      <text id="Safi_Airlines" data-name="Safi Airlines" transform="translate(323 573)" fill="#1c2b2d" font-size="46" font-family="Staatliches-Regular, Staatliches"><tspan x="0" y="44">Safi Airlines</tspan></text>
    </g>
  </g>
</svg>
